# xmcd
#
# Track frame offsets: 
#        150
#        23296
#        49757
#        72092
#        92477
#        124175
#        144426
#        162943
#        183532
#        202883
#        226510
#        250961
#
# Disc length: 3690 seconds
#
# Revision: 0
# Processed by: cddbd v1.5.2PL0 Copyright (c) Steve Scherf et al.
# Submitted via: ExactAudioCopy v1.0b3
#
DISCID=900e680c
DTITLE=Eric Gales - Good For Sumthin'
DYEAR=2014
DGENRE=Blues-Rock
TTITLE0=Come A Long Way
TTITLE1=1019
TTITLE2=Going Back To Memphis
TTITLE3=Good For Something
TTITLE4=Six Deep
TTITLE5=You Give Me Life
TTITLE6=Heavens Gate
TTITLE7=Tonight
TTITLE8=Show Me How
TTITLE9=Miss You
TTITLE10=Steep Climb (feat. Zakk Wylde)
TTITLE11=E2 (Note for Note) (feat. Eric Johnson)
EXTD=
EXTT0=
EXTT1=
EXTT2=
EXTT3=
EXTT4=
EXTT5=
EXTT6=
EXTT7=
EXTT8=
EXTT9=
EXTT10=
EXTT11=
PLAYORDER=
